<?xml version="1.0" encoding="utf-8"?>
<!-- Generator: Adobe Illustrator 22.1.0, SVG Export Plug-In . SVG Version: 6.00 Build 0)  -->
<svg version="1.1" id="Layer_1" xmlns="http://www.w3.org/2000/svg" xmlns:xlink="http://www.w3.org/1999/xlink" x="0px" y="0px"
	 viewBox="0 0 512 511" style="enable-background:new 0 0 512 511;" xml:space="preserve">
<style type="text/css">
	.st0{fill:#D1903B;}
	.st1{fill:#C61F09;}
	.st2{fill:#D61712;}
	.st3{fill:#DD5E5E;}
	.st4{fill:#993022;}
	.st5{fill:#F3E8D7;}
</style>
<path class="st0" d="M317,453c-0.7-13.2-11.3-24-24.6-24.7c-0.1,0-0.2,0-0.3,0c-3-0.1-5.3-2.5-5.3-5.5l-0.4-118.6l-44.3,0.1
	l0.4,118.6c0,3-2.3,5.4-5.3,5.5c-0.1,0-0.2,0-0.3,0c-13.2,0.8-23.8,11.6-24.4,24.8c-0.7,15,11.3,27.4,26.2,27.3
	c11.5,0,18-6.2,21.6-12.5c2-3.6,7.2-3.6,9.3-0.1c3.7,6.3,10.2,12.5,21.4,12.4C305.9,480.4,317.8,468,317,453z"/>
<path class="st1" d="M397.9,97.2c-1.4-22.5-61-40.5-134.3-40.2c-73.5,0.2-133.2,18.7-134,41.3c-1.1,7.3-1.7,14.8-1.6,22.4
	c0.3,27.8,8.9,53.6,23.5,75c21.1,31,37.6,64.6,49,99.9c5.7,17.6,22.2,29.4,40.7,29.4l46.7-0.1c18.5-0.1,35-12,40.5-29.6
	c11.1-35.4,27.5-69.1,48.4-100.3c14.6-21.7,23.1-47.9,23-76C399.7,111.4,399.1,104.2,397.9,97.2z"/>
<path class="st2" d="M397.9,97.2c-1.4-22.5-61-40.5-134.3-40.2c-7.9,0-15.7,0.3-23.3,0.7c62.2,3.2,109.7,19.6,111,39.7
	c1.1,7,1.8,14.3,1.8,21.6c0.1,28.1-8.4,54.3-23,76c-26.7,39.7-45.9,83.7-56.4,129.8l14,0c18.5-0.1,35-12,40.5-29.6
	c11.1-35.4,27.5-69.1,48.4-100.3c14.6-21.7,23.1-47.9,23-76C399.7,111.4,399.1,104.2,397.9,97.2z"/>
<path class="st3" d="M263.6,57c-74.1,0.2-134.1,19-134.1,41.8c0.1,22.9,60.2,41.2,134.3,41C338,139.6,398,120.8,398,98
	C397.9,75.1,337.7,56.7,263.6,57z"/>
<path class="st4" d="M263.6,57c-8.2,0-16.3,0.3-24.1,0.7c62.6,3.3,110.1,20.1,110.2,40.4c0.1,20.3-47.4,37.4-109.9,41.1
	c7.8,0.4,15.9,0.6,24.1,0.6C338,139.6,398,120.8,398,98C397.9,75.1,337.8,56.7,263.6,57z"/>
<path class="st5" d="M263.8,113c-27.6,0.1-54.6-2.7-76-7.7c-2.1-0.5-4.2-1-6.1-1.5c-5.2-1.4-5.2-8.7,0-10.2c1.9-0.5,3.9-1.1,6.1-1.6
	c21.4-5.2,48.3-8.1,75.9-8.2c27.6-0.1,54.6,2.7,76,7.7c2.1,0.5,4.2,1,6.1,1.5c5.2,1.4,5.2,8.7,0,10.2c-1.9,0.5-3.9,1.1-6.1,1.6
	C318.4,110,291.4,112.9,263.8,113z"/>
</svg>
